<?xml version="1.0" encoding="UTF-8" standalone="no"?>
<!-- Created with Inkscape (http://www.inkscape.org/) -->

<svg
   xmlns:dc="http://purl.org/dc/elements/1.1/"
   xmlns:cc="http://creativecommons.org/ns#"
   xmlns:rdf="http://www.w3.org/1999/02/22-rdf-syntax-ns#"
   xmlns:svg="http://www.w3.org/2000/svg"
   xmlns="http://www.w3.org/2000/svg"
   xmlns:sodipodi="http://sodipodi.sourceforge.net/DTD/sodipodi-0.dtd"
   xmlns:inkscape="http://www.inkscape.org/namespaces/inkscape"
   width="100"
   height="61.146999"
   viewBox="0 0 99.999997 61.147"
   id="svg2"
   version="1.1"
   inkscape:version="0.91 r13725"
   sodipodi:docname="srn.svg">
  <defs
     id="defs4" />
  <sodipodi:namedview
     id="base"
     pagecolor="#ffffff"
     bordercolor="#666666"
     borderopacity="1.0"
     inkscape:pageopacity="0.0"
     inkscape:pageshadow="2"
     inkscape:zoom="2.4342319"
     inkscape:cx="-160.79528"
     inkscape:cy="23.581918"
     inkscape:document-units="px"
     inkscape:current-layer="layer1"
     showgrid="false"
     inkscape:window-width="1920"
     inkscape:window-height="1026"
     inkscape:window-x="1440"
     inkscape:window-y="0"
     inkscape:window-maximized="1"
     units="px" />
  <metadata
     id="metadata7">
    <rdf:RDF>
      <cc:Work
         rdf:about="">
        <dc:format>image/svg+xml</dc:format>
        <dc:type
           rdf:resource="http://purl.org/dc/dcmitype/StillImage" />
        <dc:title></dc:title>
      </cc:Work>
    </rdf:RDF>
  </metadata>
  <g
     inkscape:label="Layer 1"
     inkscape:groupmode="layer"
     id="layer1"
     transform="translate(0,-991.21521)">
    <path
       style="fill:#000000"
       d="m 21.013629,991.21554 c -0.46135,-0.0463 -0.9713,0.73347 -1.68319,2.54052 l -0.71318,1.81033 -1.67185,0.18884 c -0.91961,0.10381 -2.54265,0.55222 -3.60619,0.99707 -1.06354,0.44484 -3.02142,1.04732 -4.3508405,1.33886 -3.9504,0.86632 -4.99025,1.34536 -6.55271,3.01574 -3.21483996,3.437 -3.25396996,8.333 -0.0774,9.7001 3.08025,1.3256 9.1347205,0.9592 12.9404805,-0.7831 0.9986,-0.4572 1.95007,-0.7478 2.115,-0.6458 0.36168,0.2235 8.65986,10.5652 10.36977,12.9235 0.66687,0.9197 2.30224,2.6899 3.63388,3.9335 2.38933,2.2313 2.41432,2.2711 1.90539,3.0478 -0.62588,0.9552 -2.44718,2.2463 -4.1916,2.9711 -0.70902,0.2946 -2.1739,1.2397 -3.25558,2.0999 -2.24669,1.7867 -3.07135,2.1581 -5.76021,2.5965 -1.74486,0.2846 -5.79539,1.6687 -6.35946,2.1729 -0.12554,0.1123 -0.12085,0.3782 0.0107,0.5911 0.1775,0.2872 0.90176,0.1489 2.80677,-0.5357 1.41206,-0.5074 3.39788,-1.0735 4.41316,-1.2576 2.34446,-0.4253 3.57498,-1.0142 5.57641,-2.6696 0.88102,-0.7287 2.3576,-1.6597 3.28202,-2.069 0.92442,-0.4093 2.19846,-1.1531 2.83069,-1.653 1.31033,-1.0362 2.52596,-2.8913 2.21949,-3.3871 -0.11342,-0.1836 -1.35385,-1.4303 -2.75642,-2.7703 -1.40256,-1.34 -3.08509,-3.1731 -3.73837,-4.0733 -2.62452,-3.6162 -10.47599,-13.2448 -10.87586,-13.3376 -0.23489,-0.055 -1.16247,0.2733 -2.06149,0.7289 -2.61444,1.3248 -5.5553905,1.881 -8.9339605,1.6888 -3.0191,-0.1717 -4.7091,-0.7337 -5.07535,-1.6882 -0.73223996,-1.9082 0.20206,-5.3228 1.92237,-7.0254 1.24369,-1.2309 2.16822,-1.6566 4.61585,-2.12512 1.13569,-0.21738 3.2386005,-0.83544 4.6731305,-1.37348 1.43454,-0.53804 3.47803,-1.06986 4.54157,-1.18213 l 1.93371,-0.20458 0.98322,-2.05897 0.98322,-2.05897 0.38649,1.29102 c 0.21268,0.70986 0.38649,1.65471 0.38649,2.09989 0,1.24513 0.66976,1.59498 2.57198,1.34264 l 1.66367,-0.22093 -0.52811,1.25325 c -0.2907,0.68923 -0.55299,1.32515 -0.58226,1.41378 -0.0293,0.0886 0.15037,1.3514 0.39908,2.8062 l 0.45259,2.645 5.25034,5.6116 c 3.22829,3.45 5.72069,5.8357 6.47151,6.1946 2.32769,1.1124 10.18274,0.5459 17.83456,-1.286 5.17158,-1.2382 8.64654,-1.7273 14.9705,-2.1081 11.47434,-0.691 12.93972,-1.0267 15.63082,-3.5772 0.79765,-0.756 2.22732,-2.1105 3.17689,-3.0101 l 1.72662,-1.636 -0.15989,2.5783 c -0.10849,1.7527 -0.52271,3.6618 -1.29417,5.9623 -1.91889,5.7221 -2.65611,11.9171 -1.72599,14.5028 0.32628,0.907 7.22464,10.9983 10.73171,15.6988 0.4743,0.6357 0.95394,0.9651 1.24319,0.8541 0.625151,-0.2398 0.739801,-0.055 -5.17293,-8.3347 -2.78487,-3.8996 -5.28334,-7.5978 -5.55185,-8.2182 -1.05764,-2.4437 -0.33715,-8.579 1.73668,-14.7899 1.26281,-3.782 1.7907,-8.0545 1.09841,-8.8886 -0.75,-0.9037 -1.45042,-0.5134 -4.36469,2.4316 -4.45128,4.4983 -4.2938,4.4498 -17.23594,5.2919 -6.26409,0.4075 -8.46534,0.6902 -12.73025,1.6334 -6.96385,1.5401 -10.01418,2.0348 -14.01939,2.2737 -5.24524,0.3127 -5.2856,0.2924 -10.52083,-5.2831 -2.456,-2.6157 -4.79433,-5.1278 -5.19621,-5.5827 -0.43364,-0.4909 -0.92313,-1.7337 -1.20417,-3.0567 -0.42758,-2.0129 -0.42194,-2.374 0.0554,-3.72077 0.75588,-2.13268 0.49752,-2.53736 -1.6196,-2.53736 l -1.74676,0 -0.22409,-1.19347 c -0.2519,-1.34276 -1.26512,-3.48228 -1.80782,-3.81769 -0.0643,-0.0398 -0.12922,-0.0632 -0.19513,-0.0699 z m 57.99112,27.73286 c -3.37587,-0.025 -10.41223,0.046 -18.12978,0.192 -17.002,0.3222 -18.81854,0.4079 -19.90864,0.9411 -2.47487,1.2104 -2.65004,1.4041 -2.65004,2.9288 0,1.1552 0.21827,1.6858 1.16828,2.8452 1.05897,1.2923 5.51021,4.9256 6.03466,4.9256 0.11909,0 0.83169,0.2869 1.5831,0.6376 0.75141,0.3507 2.2361,0.8508 3.29964,1.111 3.37487,0.8256 12.76148,0.2296 18.53138,-1.1765 2.58082,-0.6289 3.9011,-1.1926 9.06048,-3.8705 3.0662,-1.5915 4.04696,-2.3676 4.95764,-3.9216 1.48066,-2.5265 0.803,-4.1498 -1.9016,-4.5554 -0.20155,-0.03 -0.91984,-0.049 -2.04512,-0.057 z m 1.8802,12.9676 c -0.47293,0.013 -1.18738,0.3196 -2.83699,1.0795 -3.71908,1.7132 -7.3219,2.5381 -12.79886,2.9295 -6.90876,0.4938 -12.34772,-0.2437 -18.98144,-2.5732 -2.45504,-0.8621 -4.08917,-1.269 -4.59067,-1.1431 -0.42826,0.1075 -2.55609,1.7678 -4.72852,3.6899 -5.8408,5.1676 -14.68839,12.1635 -16.43841,12.9978 -0.97187,0.4633 -1.53086,0.937 -1.53086,1.2979 0,0.75 0.0819,0.7348 2.26355,-0.428 2.12255,-1.1313 8.91095,-6.4867 15.72082,-12.4023 2.53517,-2.2023 4.88211,-4.0047 5.21573,-4.0047 0.33362,0 2.24814,0.5716 4.25391,1.2697 10.53205,3.6656 23.43977,3.4599 31.89801,-0.508 1.35765,-0.6369 2.61565,-1.0667 2.79544,-0.9555 0.17979,0.1111 0.57129,0.9611 0.86992,1.8896 0.29863,0.9285 1.26084,3.0494 2.13828,4.7128 0.87745,1.6634 2.08253,4.2014 2.67837,5.64 0.62112,1.4997 1.30055,2.6601 1.59254,2.7199 0.28009,0.057 0.50923,-0.07 0.50923,-0.2833 0,-0.645 -2.45853,-6.1887 -3.64773,-8.2252 -0.6131,-1.0498 -1.51646,-3.0446 -2.00736,-4.4326 -0.5713,-1.6154 -1.15944,-2.6987 -1.63471,-3.0101 -0.25928,-0.1699 -0.4565,-0.2683 -0.74025,-0.2606 z m -36.94945,3.4243 c -0.30602,0.032 -0.57271,0.6524 -0.76605,1.8418 -0.16026,0.9858 -0.33922,1.1516 -1.65486,1.5352 -1.66275,0.4849 -2.66574,1.3981 -2.49582,2.2724 0.10236,0.5267 0.48528,0.5879 3.67354,0.5879 3.30163,0 3.6518,0.061 4.84246,0.8466 1.57235,1.0372 2.7034,3.2149 2.06778,3.9807 -0.59878,0.7215 -10.15923,0.7278 -10.43586,0.01 -0.10202,-0.2658 -0.41003,-0.4834 -0.68485,-0.4834 -0.37275,0 -0.44812,0.206 -0.29648,0.8101 0.11256,0.4485 0.0365,1.0114 -0.17058,1.2609 -0.5093,0.6136 0.10021,0.9603 0.91838,0.5224 0.34653,-0.1854 1.98135,-0.3263 3.63263,-0.3128 l 3.00191,0.025 -3.54513,0.7547 c -3.25336,0.6925 -3.59212,0.7125 -4.11669,0.2411 -0.4553,-0.4092 -0.65204,-0.432 -0.96685,-0.1127 -0.31279,0.3172 -0.26203,0.4988 0.24171,0.8706 0.54305,0.4007 0.57653,0.5649 0.23038,1.1191 -0.22316,0.3574 -0.31974,0.7887 -0.21464,0.9587 0.33705,0.5454 0.7685,0.3332 1.26144,-0.62 0.54481,-1.0536 0.423,-1.0145 6.33428,-2.0086 l 4.38106,-0.7371 1.8267,1.2129 c 3.3789,2.2428 4.44305,2.5627 7.91927,2.3832 3.44664,-0.178 5.15514,-0.7253 7.56991,-2.426 l 1.58436,-1.1154 4.93561,0.1322 c 4.9302,0.1325 4.93718,0.1337 5.91129,1.067 0.73545,0.7046 1.06603,0.8431 1.34579,0.5633 0.27975,-0.2797 0.26957,-0.4931 -0.0416,-0.868 -0.35676,-0.4299 -0.27604,-0.4973 0.59421,-0.4973 0.69074,0 1.00589,-0.1551 1.00589,-0.4954 0,-0.3955 -0.37437,-0.4833 -1.85314,-0.4355 -1.01923,0.033 -3.15839,-0.1044 -4.7537,-0.3047 -1.59531,-0.2003 -3.65917,-0.3663 -4.5869,-0.3695 l -1.68695,-0.01 0.53756,-1.128 0.53819,-1.128 5.03632,0 5.03696,0 0.92846,0.9694 c 0.61475,0.6416 1.03623,0.8609 1.24823,0.6489 0.212,-0.212 0.0622,-0.5951 -0.44314,-1.133 -0.74702,-0.7951 -0.74961,-0.8218 -0.14038,-1.2715 0.47511,-0.3507 0.53292,-0.5493 0.24612,-0.8403 -0.28887,-0.2932 -0.54692,-0.2613 -1.11855,0.1391 -0.60496,0.4237 -1.65186,0.5205 -5.61921,0.5205 l -4.87519,0 0.41796,-2.3365 c 0.62274,-3.479 0.60745,-3.6343 -0.27318,-2.8131 -0.39883,0.3719 -1.66365,1.139 -2.81118,1.7046 l -2.08667,1.0279 -7.31058,0.098 -7.3112,0.097 -1.72158,-1.5025 c -2.28937,-1.9986 -2.52729,-2.3361 -2.52729,-3.5873 0,-1.2575 -0.17167,-1.3177 -0.9826,-0.3418 l -0.60239,0.7251 -0.40601,-1.0474 c -0.26936,-0.695 -0.53118,-1.0254 -0.7692,-1.0002 z"
       id="path3401"
       inkscape:connector-curvature="0" />
    <path
       style="fill:#000000"
       d="m 70.046122,922.87462 c -1.64731,0 -2.55536,3.52203 -1.83593,7.11914 0.31029,1.55125 0.28968,3.537 -0.0469,4.41406 -0.50733,1.32208 -1.01513,1.12769 -2.96289,-1.13672 -2.72265,-3.16527 -5.67234,-2.73583 -5.64844,0.82227 0.0232,3.44908 1.48596,5.19326 3.63282,4.32812 1.71171,-0.68978 1.68233,-0.81091 -0.39844,-1.61328 -2.2932,-0.88427 -2.92756,-2.39526 -1.40235,-3.33789 0.46583,-0.2879 1.92833,0.69846 3.25,2.19141 2.05424,2.32046 2.38169,3.65632 2.26368,9.21289 -0.2078,9.78417 -1.14981,13 -3.8086,13 -3.39574,0 -3.71264,1.00481 -1.46679,4.63867 1.26637,2.04903 1.8133,4.10822 1.41992,5.34766 -0.37629,1.18559 -0.18747,2.01367 0.45898,2.01367 2.01175,0 2.39978,-3.30037 0.73047,-6.20898 -1.34832,-2.34931 -1.40111,-2.96584 -0.28906,-3.39258 2.12696,-0.81619 10.38533,5.56211 11.55859,8.92773 1.22234,3.50639 2.56589,2.92503 1.65235,-0.71484 -0.34261,-1.36507 -2.64157,-4.13601 -5.10938,-6.1582 -2.65493,-2.17552 -4.19639,-4.14114 -3.77539,-4.81446 0.39133,-0.62586 0.94969,-4.73867 1.24023,-9.13867 l 0.52735,-8 4.77539,-0.30469 c 5.94173,-0.38055 5.25231,-2.19531 -0.83399,-2.19531 -5.06029,0 -5.26388,-0.50924 -2.93554,-7.36719 1.57181,-4.62968 1.18022,-7.63281 -0.9961,-7.63281 z m -28.69336,2 c -2.81498,0 -3.57865,2.09681 -3.07031,8.42969 0.45396,5.65529 0.30671,6.32347 -1.49609,6.79492 -2.02394,0.52927 -8.25,-3.46824 -8.25,-5.29688 0,-0.51014 1.15113,-0.92773 2.55859,-0.92773 1.45136,0 2.29193,-0.43284 1.94141,-1 -0.33992,-0.55 -2.1238,-1 -3.96485,-1 -2.84691,0 -3.26975,0.29756 -2.82812,1.98633 0.7413,2.83473 8.16502,9.27738 9.91601,8.60547 1.60154,-0.61458 1.95756,0.12382 2.72852,5.6582 0.56213,4.03534 -0.99475,5.08975 -3.3418,2.26172 -0.67967,-0.81894 -1.63536,-1.24282 -2.12304,-0.94141 -1.26354,0.78091 -1.09897,8.81705 0.20703,10.12305 0.79019,0.79019 0.79019,1.65828 0,3.13477 -1.53765,2.87313 -1.35869,3.63764 0.49219,2.10156 1.0764,-0.8933 1.39733,-2.21712 1,-4.12305 -0.32184,-1.54378 -0.85384,-4.10304 -1.18164,-5.6875 l -0.59571,-2.88086 3.53906,1.10742 c 1.94627,0.60917 3.74277,1.89417 3.99415,2.85547 0.25139,0.9613 2.11064,2.72407 4.13085,3.91602 3.12433,1.84338 3.58623,2.55684 3.08594,4.77539 -0.56181,2.49135 -0.52164,2.52014 0.92578,0.66601 2.34856,-3.00847 1.84241,-4.35139 -2.46875,-6.55078 -4.51187,-2.30178 -4.93419,-3.4084 -5.27539,-13.80468 l -0.24023,-7.29883 5.32031,-1.82227 c 5.2145,-1.78609 8.0159,-3.57786 7.07031,-4.52344 -0.26168,-0.26169 -2.70694,0.61586 -5.43359,1.95118 -8.04131,3.93807 -8.2403,3.74255 -5.90039,-5.75977 0.49852,-2.02449 0.30261,-2.75 -0.74024,-2.75 z m -29.86718,0.22266 c -0.27873,-0.0277 -0.5923,0.0566 -0.9336,0.26757 -0.81946,0.50645 -0.99666,2.15556 -0.55078,5.12891 0.75786,5.05381 -0.0834,5.46305 -4.50586,2.19336 -1.83747,-1.3585 -2.95898,-3.09067 -2.95898,-4.56836 l 0,-2.37891 -3.03125,2.15821 -3.03321,2.16015 3.28321,1.74024 c 8.69995,4.61384 9.76939,5.53164 9.77539,8.38867 0.003,1.54666 0.73217,5.03042 1.61914,7.74219 1.88293,5.75673 1.26613,10.83938 -1.63281,13.46289 -1.08924,0.98575 -1.98047,2.17391 -1.98047,2.63867 0,1.78977 1.59668,0.68847 3.89453,-2.68555 2.18044,-3.20161 2.54736,-3.38123 4.08008,-1.99414 1.75642,1.58954 6.02539,2.1071 6.02539,0.73047 0,-0.43627 -1.4625,-1.22377 -3.25,-1.75 -3.09341,-0.9107 -3.2794,-1.24612 -3.86524,-6.95703 -0.6535,-6.37065 -0.76059,-6.16035 5.91602,-11.61133 1.91288,-1.56173 -0.22556,-3.68932 -4.51563,-4.49414 -3.39593,-0.63708 -3.49657,-0.78354 -3.01171,-4.39844 0.45682,-3.4059 -0.11642,-5.65362 -1.32422,-5.77343 z m 87.01367,10.9375 c -1.281,0.072 -2.14799,2.21878 -2.41016,6.10742 -0.45451,6.74177 -1.45139,7.5454 -3.92383,3.16211 -1.17065,-2.0754 -2.61388,-3.93232 -3.20703,-4.12696 -1.25168,-0.41073 -5.14437,6.30877 -4.20117,7.25196 0.34782,0.34783 1.35274,-0.75983 2.23242,-2.46094 0.87968,-1.70111 1.77257,-3.09375 1.98438,-3.09375 0.21182,0 1.3275,1.94836 2.48047,4.33008 1.77378,3.66414 1.9224,4.82904 0.96679,7.57031 -0.6211,1.78184 -0.88633,5.04927 -0.58984,7.25977 0.47687,3.5553 0.13704,4.46361 -2.94141,7.87109 -3.27006,3.61956 -3.41823,4.07719 -2.44726,7.59375 0.73072,2.64645 0.71399,4.12768 -0.0586,5.05859 -0.8481,1.0219 -0.59164,1.31641 1.14649,1.31641 1.86574,0 2.12102,-0.37515 1.5293,-2.25 -1.96424,-6.22366 -1.80814,-7.84254 1.04101,-10.81641 1.5457,-1.61336 3.13779,-2.93359 3.53906,-2.93359 0.40126,0 1.36617,1.9125 2.14258,4.25 1.00818,3.03526 2.03107,4.34209 3.58203,4.57031 1.426148,0.20985 2.171878,-0.20863 2.171878,-1.21875 0,-0.91764 -0.57302,-1.31913 -1.41992,-0.99414 -1.901748,0.72977 -5.604998,-7.67048 -5.503908,-12.48437 0.11868,-5.65171 2.25867,-10.5727 4.75781,-10.94141 1.436958,-0.21201 2.166018,0.20868 2.166018,1.25 0,0.86325 0.45,1.56836 1,1.56836 1.26675,0 1.25937,-0.6456 -0.0352,-3.06445 -0.56935,-1.06384 -1.91935,-1.93555 -2.999998,-1.93555 -2.34864,0 -2.49497,-1.75341 -0.4707,-5.63477 1.767578,-3.38918 1.925838,-5.98725 0.41992,-6.91796 -0.33728,-0.20846 -0.65556,-0.30373 -0.95117,-0.28711 z m -83.71289,0.85547 c 4.10809,0.028 5.14349,1.49689 2.3457,3.33007 -2.85403,1.87004 -3.00862,1.90936 -3.92969,0.98828 -1.60386,-1.60386 -0.60252,-4.33326 1.58399,-4.31835 z"
       id="path3403"
       inkscape:connector-curvature="0" />
  </g>
</svg>
